:SAMPLES-PER-SECOND 30
:FULLY-SPECIFIED
:DEGREES
95
root  30.0767 35.9117 -2.06275 -7.58672 -49.2495 2.38588
RightUpLeg  -26.0754 -9.78116 -9.58324
RightLeg  65.6023 -1.17453 -3.50529
RightFoot  -4.46585 -0.510451 7.98909
RightToes  -3.0268e-009 0 -3.6325e-017
Spine  16.7269 1.38175 -8.42904
Spine1  5.70422 0.512694 -0.932054
HEad  -10.6982 -2.14059 -1.73294
LeftShoulder1  -0.220377 4.08817 -31.5612
LeftArm  10.1514 -13.1403 -45.4363
LeftForeArm  24.9413 -33.384 -5.97079
LeftHand  -0.0175194 7.95362 1.08322
RightShoulder  -1.09082 -6.32942 32.0394
RightArm  20.0174 -1.78164 45.8806
RightForeArm  16.8901 12.0709 7.45837
RightHand  -0.114912 2.29577 -1.95899
LeftUpLeg  -22.6366 -6.46134 -4.97367
LeftLeg  45.0737 -2.35196 -2.09974
LeftFoot  -14.6839 0.324793 8.08564
LeftToes  2.52475e-009 -1.26109e-010 3.16044e-011
96
root  29.1072 35.9732 -2.32932 -5.54336 -44.8411 0.914719
RightUpLeg  -27.4984 -7.55463 -11.7677
RightLeg  57.8179 -1.8623 -3.70632
RightFoot  -4.88477 -0.478232 7.88036
RightToes  -3.0268e-009 0 -3.6325e-017
Spine  18.4329 1.19766 -8.27955
Spine1  5.89938 -0.0594865 0.330363
HEad  -12.1595 -2.8266 -1.51293
LeftShoulder1  -0.146343 3.89619 -31.1915
LeftArm  9.59278 -13.9834 -46.9824
LeftForeArm  26.9993 -38.2708 -7.15975
LeftHand  -0.02411 7.16986 0.910354
RightShoulder  -1.0982 -6.35088 32.0104
RightArm  20.795 -2.42049 44.8997
RightForeArm  15.897 13.5152 6.89131
RightHand  -0.0192127 3.17227 -0.475053
LeftUpLeg  -23.0558 -8.22221 -2.92055
LeftLeg  45.5289 -4.41975 -4.38858
LeftFoot  -15.7156 0.38632 7.64833
LeftToes  2.52475e-009 -1.26109e-010 3.16044e-011
97
root  28.118 35.9656 -2.58354 -3.86203 -40.967 0.689328
RightUpLeg  -28.762 -4.32851 -15.1856
RightLeg  50.1375 -1.94922 -2.83243
RightFoot  -5.11881 -0.49431 8.43499
RightToes  -3.0268e-009 0 -3.6325e-017
Spine  19.3504 1.16865 -8.55905
Spine1  5.97926 -0.456725 1.48213
HEad  -13.2583 -3.91425 -1.03552
LeftShoulder1  -0.144921 3.89286 -31.1259
LeftArm  9.08814 -14.3868 -48.2651
LeftForeArm  29.0859 -42.2807 -8.23977
LeftHand  -0.0342001 7.086 0.341533
RightShoulder  -1.11022 -6.38616 31.9514
RightArm  23.3563 -2.92736 43.8705
RightForeArm  12.357 15.7028 6.30604
RightHand  -0.111369 3.02691 -1.76724
LeftUpLeg  -24.3409 -10.0923 -1.37133
LeftLeg  46.0207 -6.00205 -6.20652
LeftFoot  -16.729 0.417643 6.71676
LeftToes  2.52475e-009 -1.26109e-010 3.16044e-011
98
root  27.1028 35.9387 -2.85055 -2.7662 -37.7269 0.741295
RightUpLeg  -29.2082 -0.0582005 -18.79
RightLeg  43.6724 -2.28409 -2.65318
RightFoot  -5.19588 -0.479777 8.26936
RightToes  -3.0268e-009 0 -3.6325e-017
Spine  20.3892 1.26397 -8.51727
Spine1  6.12485 -0.565627 2.06623
HEad  -14.795 -5.47433 -0.367881
LeftShoulder1  -0.113271 3.80884 -31.0088
LeftArm  8.9051 -14.4971 -49.1959
LeftForeArm  28.7928 -44.9421 -9.16244
LeftHand  -0.0171884 6.7009 1.49124
RightShoulder  -1.21334 -6.61695 32.4354
RightArm  26.4079 -2.87478 42.4736
RightForeArm  9.25346 18.3214 5.4996
RightHand  -0.113863 2.91699 -1.80166
LeftUpLeg  -25.3058 -11.6412 0.170386
LeftLeg  46.5422 -7.36367 -7.83409
LeftFoot  -17.58 0.444465 6.20966
LeftToes  2.52475e-009 -1.26109e-010 3.16044e-011
99
root  25.9677 35.8837 -3.11437 -1.97959 -35.0152 0.88197
RightUpLeg  -29.3374 4.11456 -21.8439
RightLeg  39.3245 -2.02587 -2.04448
RightFoot  -5.07004 -0.420374 7.02529
RightToes  -3.0268e-009 0 -3.6325e-017
Spine  21.3548 1.47435 -8.91056
Spine1  6.12857 -0.725421 3.05531
HEad  -16.2714 -6.94603 0.316416
LeftShoulder1  -0.0926418 3.75343 -30.975
LeftArm  8.01431 -13.8637 -49.2512
LeftForeArm  29.4148 -46.5241 -9.69537
LeftHand  -0.0205948 6.4188 1.44202
RightShoulder  -1.17865 -6.53276 32.3584
RightArm  28.1106 -2.96517 41.6988
RightForeArm  7.10617 20.4779 4.89575
RightHand  -0.183013 3.63307 -2.62241
LeftUpLeg  -25.9094 -12.7557 1.91581
LeftLeg  47.0027 -8.68243 -9.43273
LeftFoot  -18.6851 0.458229 5.39364
LeftToes  2.52475e-009 -1.26109e-010 3.16044e-011
100
root  24.805 35.8021 -3.34892 -1.36972 -32.4474 1.59597
RightUpLeg  -29.4716 6.4062 -24.1473
RightLeg  37.2747 -2.74176 -2.50179
RightFoot  -5.09776 -0.359135 5.96743
RightToes  -3.0268e-009 0 -3.6325e-017
Spine  21.661 1.37263 -9.45862
Spine1  6.43558 -1.14431 3.75158
HEad  -17.0413 -8.51886 1.51645
LeftShoulder1  -0.127972 3.84583 -31.2997
LeftArm  6.876 -13.2194 -48.7261
LeftForeArm  29.4584 -46.2383 -9.59248
LeftHand  -0.0157775 6.35328 1.96982
RightShoulder  -1.11773 -6.41459 31.849
RightArm  26.9406 -2.7944 42.006
RightForeArm  6.6877 21.4452 4.68799
RightHand  -0.273698 4.0727 -3.71104
LeftUpLeg  -26.5939 -14.4403 3.26715
LeftLeg  47.1138 -9.51297 -10.3893
LeftFoot  -19.855 0.429385 4.16237
LeftToes  2.52475e-009 -1.26109e-010 3.16044e-011
101
root  23.5397 35.7738 -3.59481 -1.01431 -29.9568 2.07157
RightUpLeg  -28.5859 5.45463 -24.0482
RightLeg  36.7101 -3.93728 -3.40977
RightFoot  -4.44927 -0.338238 4.86687
RightToes  -3.0268e-009 0 -3.6325e-017
Spine  21.9624 1.21952 -9.5922
Spine1  6.66351 -1.49776 4.21382
HEad  -17.2575 -10.9108 2.6778
LeftShoulder1  -0.100624 3.77205 -31.415
LeftArm  5.65682 -12.6551 -47.4909
LeftForeArm  28.7201 -43.871 -8.80128
LeftHand  -0.0183843 6.31306 1.7766
RightShoulder  -1.13603 -6.44803 32.0255
RightArm  25.6403 -2.61649 42.0338
RightForeArm  3.64084 22.1143 4.75794
RightHand  -0.569095 2.95064 -8.17181
LeftUpLeg  -26.6092 -15.8591 4.96316
LeftLeg  46.706 -10.6615 -11.4863
LeftFoot  -20.8261 0.352589 2.74183
LeftToes  2.52475e-009 -1.26109e-010 3.16044e-011
